<svg width="99" height="99" fill="none" xmlns="http://www.w3.org/2000/svg">
  <path fill-rule="evenodd" clip-rule="evenodd" d="M99.371-.41v99.259H0V-.411h99.371z" fill="#221A27"/>
  <path fill-rule="evenodd" clip-rule="evenodd" d="M30.848 54.529c-.297.26.075 0-.222.148-.075.037-.112.037-.297.111l.816.817c-.78-.111-4.751-1.782-4.9.817 1.151.78 3.044.52 4.38.148.929-.26 1.188-.557 1.93-.111.595.334 1.152.742 1.708.928-.408.26-.853.037-1.447-.074a5.278 5.278 0 00-1.708-.038c-1.114.112-1.67.632-1.745 1.782 1.597.52 2.97.075 4.38-.482 2.08-.854 1.226-.594 3.935.445-.148.074 0 .037-.26.074-.408.075-5.419-.668-4.528 2.228 3.712.26 4.826-2.19 6.05-1.856.335.074 1.894.556 2.08.668-.706.334-5.235-.223-4.492 2.895 2.784.371 4.751-2.635 5.716-2.673.557 0 1.708.335 2.487.409-.222.185-2.45.557-3.08.854-.817.37-2.154 1.373-1.263 2.56.186.15-.222.15.446.112.074 0 .408-.074.52-.111 1.707-.483 2.45-1.485 3.563-2.636.742-.78.631-.63 2.041-.63.223-.26.446-.223.891-.26-.222-.52-.037.074.632-.075l.148-.668c-1.002-1.15-2.264-3.452-3.526-3.86-.928 1.039-.594 2.71 1.076 3.526l.965.371c.409.223.149.037.334.223-3.23.111-2.004-.668-4.603-4.01-.297-.407-.297-.445-.89-.593-.409 1.076-.892 1.708.037 2.821.37.446 1.559 1.3 2.375 1.485-.334.223-1.596-.074-2.078-.186-.632-.222-.817-.928-1.077-1.522-.445-1.039-1.076-2.932-1.967-3.378-.78.669-.891 1.894-.297 2.822.52.816 1.039 1.076 1.967 1.67-.334.148-1.262-.297-1.745-.445-1.447-.483-1.076-2.747-2.004-4.38l-.631-.817c-.706.445-1.15 1.559-.743 2.524.52 1.188 1.188 1.188 1.67 2.041-.482-.11-1.373-.52-1.744-.705-.594-.334-.63-1.002-.742-1.707-.112-1.077-.186-2.822-1.04-3.675-.705.371-1.262 1.336-1.002 2.413.26 1.076 1.077 1.484 1.41 2.19-.593-.223-.964-.52-1.484-.854-1.41-.854-.149-2.227-1.262-5.531-1.893.52-1.56 2.71-.111 4.566-.335-.149-.223-.223-.669-.371z" fill="#B77A34"/>
  <path fill-rule="evenodd" clip-rule="evenodd" d="M48.626 59.912l-.148.668c-.669.149-.854-.445-.632.075-.445.037-.668 0-.89.26l1.447.037c-.408.408-6.05 1.484-3.934 4.12 2.783-.074 3.934-4.083 5.196-4.12 1.225-.038 2.413 4.009 5.346 4.157 1.262-3.34-2.525-3.23-4.046-4.12.222-.075 2.412-.186 2.746-.075.557.112 2.599 3.156 4.789 3.379 1.41.148.89-1.894-.594-2.599-1.559-.742-2.598-.445-3.08-.965 2.672-.408 2.226-.668 3.6.408.816.631 1.819 1.522 3.08 1.745l-.222-.817c-.111-.371-.26-.557-.557-.742.112-.371 0 .037.149-.26 0-.074.074-.111.111-.297l-.186-.223-.482-.185c-.594-.112-1.596 0-2.005-.223.297-.148 1.67-.557 2.08-.668 1.261-.334 2.523 2.19 6.161 1.856.817-2.524-2.821-2.302-4.566-2.227l.26-.409c-.63.037-.26.186-.594-.074.075-.037.297-.037.631-.483-.705.075-.26.075-.37-.11.704-.483 1.298-.966 1.632-1.783.409-.89.149-2.041-.63-2.598-1.411.854-1.3 4.529-2.413 5.085-.409.223-1.522.557-1.93.557.556-.63 1.298-.78 1.892-1.707.78-1.262.223-1.856-.222-2.784-.594.185-1.003.89-1.262 1.41-.409.854-1.077 3.155-1.745 3.452-.111.038-1.819.483-2.227.223 1.04-.594 1.522-.594 2.338-1.448.78-.853.743-2.041-.148-2.82-.891.593-1.56 1.744-2.19 2.932-1.003 1.893-1.003 1.744-3.49 1.707.854-.668 4.492-.928 2.822-4.157-.966.297-1.93 1.707-2.562 2.598-.297.446-.816 1.114-1.188 1.374-.334.222-.594.185-1.039.185-.705-.037-.557-.037-.928-.334z" fill="#D69846"/>
  <path fill-rule="evenodd" clip-rule="evenodd" d="M20.527 41.13l.297.222s.074.037.111.074l-.185-1.04c-.037-1.67-.891-1.558.52-2.932.705-.705 1.41-1.522 1.596-2.747-2.71 0-2.339 2.45-2.636 3.118-.297-.445-.334-1.299-.408-1.93-.223-1.93 2.784-2.338 2.747-4.306-2.413-.074-2.339 1.67-2.859 2.599l-.074-.186c-.223-.854.111.668-.037-.223-.037-.185-.037-.445-.037-.63-.074-1.634-.186-1.56 1.002-2.34.817-.556 2.005-1.299 2.116-2.338-1.15-.111-2.005.186-2.561 1.114-.26.445-.223.63-.594.928.148-3.6.37-2.228 2.635-3.824.223-.148.743-.556.817-.816.297-.854.148-.149-.037-.483-1.596-.482-2.45.742-2.97 1.819-.111-.111-.074.186-.111-.334l.297-1.485c.371-1.856 2.45-.854 3.823-2.858 0-.037-.074-.111-.074-.074-.037.037-.074-.037-.074-.037-1.708-.78-3.007 1.299-3.267 1.484.111-.594.334-1.225.52-1.744.63-1.708.854-.854 2.858-1.634.668-.26 1.077-.482 1.3-1.039-2.636-.631-2.525.52-3.527 1.15.148-.63.668-1.15.705-1.781.074-.705.074-.26-.148-.408l-.928 1.893c-.149-.26.222-1.93-.26-3.23-.26-.63-.334-.63-.631-.78-.743.929-.334 2.71.074 3.787.297.705.557.854.223 1.708-.186.52-.372 1.262-.631 1.67-.186-1.262-.26-3.564-1.522-3.675-.78 2.599 1.447 3.935 1.15 5.197-.148.631-.26 1.262-.408 1.893-.408-.371-.334-3.304-2.079-3.49-.111 1.486.297 2.488.965 3.416.78 1.076 1.077.705.78 2.97-.037.37.037-.075-.037.26-.074.26-.037.11-.148.296-.372-1.299-.966-3.044-2.45-3.155a4.49 4.49 0 001.373 3.23c1.41 1.41 1.225.965 1.3 3.526-.706-.594-.817-2.858-3.082-2.858.408 2.97 3.044 3.378 3.304 4.64.074.445.334 1.819.26 2.078-.705-1.299-1.67-3.006-3.452-2.747-.038 2.08 3.489 3.23 3.823 3.972.223.557.408 1.485.631 2.08z" fill="#EAE797"/>
  <path fill-rule="evenodd" clip-rule="evenodd" d="M51.004 26.648c-.408.186-2.784.817-3.378.817-.78.408-10.43 2.264-11.247 2.152 1.893.335 9.91-.853 12.027-1.262l3.489-.742c3.86-.928 3.823-1.67 5.16-.483 2.078 1.894-.78 3.824-1.56 3.898-.593.705-2.672.928-3.674 1.262-1.262.186-4.863 1.225-6.83 1.633-2.153.409-5.086 1.003-7.276 1.151 1.485.297 6.088-.371 7.721-.594 1.225-.148 2.45-.334 3.638-.52.594-.11 1.15-.222 1.782-.37l1.336-.26c.52-.038.148-.075.371.11.26-.407.965-.444 2.005-.704.52-.149 1.596-.446 1.967-.669 2.153-.63 5.865-2.524 2.821-4.9-.445-.37-1.819-1.002-2.153-1.299.78-.705 4.12-2.078.631-4.454-1.076-.705-4.343-2.153-6.013-2.042.52.112 1.782.854 2.338 1.151 1.745.928 3.49 2.227 1.745 4.046-1.002 1.04-1.188.371-2.673.297l1.262.668c-1.002.483-2.301.928-3.489 1.114z" fill="#E3C464"/>
  <path fill-rule="evenodd" clip-rule="evenodd" d="M79.586 24.868l-.223-.742c-.223.185-.223.111-.297.557.223.52.446 1.782.483 2.487l-.149-.149c-.185-.222-.074-.037-.223-.26-.63-.965-1.41-1.818-2.784-1.373-.11.26-.11.371.223.742 2.302 2.376 3.304.223 3.267 4.566-.037 0-.037-.074-.075-.074-.11.26-.334-2.376-3.043-2.153.037 1.15 1.596 1.967 2.264 2.413.371.26.52.482.89.705 0 .483-.036 1.002-.073 1.41l-.075.892c-.111.297 0 .111-.185.297-.26-1.597-.928-2.636-2.784-2.599.557 2.376 2.932 2.487 2.82 4.046-.036.631-.148 1.522-.37 2.005l-.112-.186c-.222-.78-.297-2.858-2.561-2.747.037 1.225 1.262 2.376 1.819 3.007.52.668.742.742.445 1.745-.148.52-.37 1.373-.594 1.819-.222-.335.112-1.411-.296-2.488-.335-.816-.891-1.076-2.005-1.113.074 2.821 2.561 3.23 1.745 5.085-.149.297-.186.446-.334.743l-.334.853v.669c.074-.112.074-.149.185-.26.149-.186.037-.111.223-.223.297-.371.63-1.225.854-1.819.296-.742.965-.742 1.67-1.076 1.077-.483 2.71-1.448 2.858-2.673-2.301-.742-3.08 1.708-3.972 2.376.112-.557.409-1.448.594-2.042.223-.78.78-.816 1.485-1.225.817-.482 2.45-1.856 2.413-3.044-2.227-.074-2.673 1.782-3.49 2.784-.037-.148.223-1.744.26-2.078.223-1.188 3.007-1.67 3.341-4.64-1.967.11-2.338 1.596-2.97 3.043-.222-.297-.074-2.041-.036-2.19.148-1.039 2.487-1.67 2.598-4.714-1.707-.074-2.227 2.858-2.561 3.267-.112-.26-.186-1.634-.186-2.08-.037-1.484 1.893-1.224 1.856-5.01-1.485.334-1.633 2.041-1.856 2.858-.185.668.111.334-.297.408l-.408-1.819z" fill="#ECF6A7"/>
  <path fill-rule="evenodd" clip-rule="evenodd" d="M62.288 58.13c-.334.445-.556.445-.63.482.334.26-.038.111.593.074 1.782 0 .483-1.41 3.638-.037 1.262.557 2.599.89 4.12.445.446-2.82-4.343-1.559-4.936-1.522l.78-.556c1.818-.966 1.001-1.003 2.895-.483 1.818.52 2.783.557 4.454-.074-.408-2.71-3.712-.965-5.16-.706.186-.297 1.077-.89 1.41-1.187.743-.632.706-.669 1.931-.446 1.596.297 3.526.26 4.566-.668-.594-2.524-4.492-.148-5.086-.037l.483-.52c-.446-.185-.223-.074-.483-.371l-.26.223c.186-.52 2.154-3.527-.52-4.492-.779 1.04-.185 2.97-.148 4.195.037 1.113-.185 1.113-.78 1.559-.407.334-.964.816-1.373 1.002.334-.631 1.04-1.15 1.262-2.227.223-1.225-.445-2.19-1.187-2.413-.78 1.076-.483 2.784-.632 4.195-.074 1.039-.185 1.002-.89 1.447-.446.26-1.003.669-1.56.854.446-.78 1.114-.965 1.56-2.079.482-1.15-.149-2.264-.817-2.635-1.336.965-.705 4.566-1.745 5.27-.445.298-1.188.446-1.485.706z" fill="#E8B649"/>
  <path fill-rule="evenodd" clip-rule="evenodd" d="M47.626 27.466c.594 0 2.97-.63 3.378-.816-1.373-2.116-2.153-4.232-.78-7.053 1.485-3.044 4.01-4.38 4.232-4.974-1.41.371-5.27 3.712-6.459 5.011-3.675 4.01-1.633 5.605-.371 7.832z" fill="#F27606"/>
  <path fill-rule="evenodd" clip-rule="evenodd" d="M26.02 50c.185.408 0 .408.408.593-.075.037-.075 0-.149.149-.26-.409-.037-.186-.482-.372-.149.409.296.483-1.077-.296a4.941 4.941 0 00-1.188-.557c-1.076-.372-2.19-.223-2.45.705 1.337 1.41 3.415 1.114 5.605 1.262.446.594 1.448 1.3 1.745 1.893-.742-.185-4.306-2.338-4.974.074 1.67 1.448 4.566.557 5.457.52.705 0 .853.631 1.41.817.186-.074.223-.074.297-.112.297-.148-.074.112.223-.148-.928-1.04-1.485-.408-1.336-2.561.074-1.077.445-2.71-.149-3.675-.705.111-1.448 1.002-1.448 1.967 0 .965.632 1.819.928 2.45-.37-.148-.89-.705-1.15-1.04-.483-.519-.78-.556-.631-1.633.26-1.67.78-2.116.408-4.083-.817 0-1.41.742-1.596 1.522-.112.483-.074.928.037 1.373.074.26.148.372.223.557.334 1.04.185.409-.112.594z" fill="#D69846"/>
  <path fill-rule="evenodd" clip-rule="evenodd" d="M75.279 15.961c-.149-.89-.223-.37.26-.26-.26-.593-.483-.482-.446-1.15.111-1.782.371-2.487-.742-4.343-1.04.78-.149 2.82.148 3.749-.52-.26-.668-.705-1.076-1.188-1.41-1.633-.075-1.67-1.002-3.712-.112-.223-.223-.483-.409-.705-.222-.372-.297-.483-.705-.594-.149 1.893.26 1.819.557 3.192-.483-.297-.78-.705-1.262-1.076-.669-.52-.446-.706-.594-1.634-.223-1.299-.891-2.413-1.893-2.784.222 2.265.816 2.339 1.15 3.23-.965-.446-2.561-3.081-6.236-3.23.668 1.596 5.197 2.376 6.236 3.972-1.15-.185-2.524-.445-3.118.594 1.225.78 2.413-.186 3.675-.148.445.297 1.819 1.559 2.005 1.893-.817-.297-2.896-.817-3.193.371 1.745.854 2.636-.111 3.638.148.594.186 1.448 1.745 1.967 2.265-.52-.149-2.153-1.56-3.118-.631 0 0-.185.148-.185.185-.149.186-.037 0-.149.26.706.631 1.188.631 2.376.594 1.967-.037 1.188.149 2.116 1.002z" fill="#E8B649"/>
  <path fill-rule="evenodd" clip-rule="evenodd" d="M75.542 15.698c-.483-.112-.408-.631-.26.26l.631 1.113c-1.485-.705-.78-1.299-3.304-.334.631 1.3 2.376.817 3.453 1.188.742.223 1.373 2.005 1.633 2.71-1.188-.706-.631-1.745-3.49-1.188.372 1.188 1.93 1.225 3.007 1.522.78.223.78.26 1.04 1.04.222.593.445 1.15.556 1.781-.965-.631-.928-1.856-3.415-1.41.297 1.299 2.413 1.484 3.675 2.3.075-.445.075-.37.297-.556l.223.742c-.037-.965 2.153-3.192 1.15-5.085-1.447.483-1.224 3.192-1.484 3.712-.223-.482-.371-1.076-.557-1.67-.371-.928-.148-.891.186-1.745.482-1.15.705-2.636.111-3.75-1.188.483-.854 2.822-.89 3.936-.15-.112-.595-1.114-.743-1.448-.965-1.856.297-1.448.037-3.972-.074-.594-.334-1.373-.631-1.707-.854.742-.446 2.56-.297 3.749-.594-.372-.52-.891-.928-1.188zM73.312 50.114l-.111.483c-.074.37 0 .074-.037.148-.149-.185-.112 0 .222-.037l.075-.074c.074-.037.111-.111.185-.186.112-.111.186-.223.335-.408 1.373-1.708.742-1.374 2.524-1.596 1.596-.186 3.08-.706 3.786-1.782-1.188-1.782-3.49.408-4.195.928-.37.223 0 .037-.37.223.11-.483.667-1.262.964-1.745.409-.78.891-.631 1.782-.89 1.3-.372 2.97-1.189 3.304-2.228-.334-.371-.631-.52-1.3-.408-1.187.148-2.227 1.484-2.97 2.227l-.073-.223c-.186.111-.075.037-.223.223-.111.111-.111.148-.186.26v-.669c-.408.075-.148.075-.222-.074.297-1.744.111-3.6-1.856-3.675-.112 1.485.63 2.525 1.15 3.601.483.928.446.965-.074 1.819-.371.594-.557 1.076-.965 1.485.111-.891.557-1.67.223-2.71-.223-.705-.891-1.373-1.67-1.448-.26 1.56.408 2.599.779 3.787.63 1.93-.965 1.93-1.077 2.97z" fill="#F5D978"/>
  <path fill-rule="evenodd" clip-rule="evenodd" d="M20.75 40.385l.186 1.039c-.038-.037-.112-.074-.112-.074l-.297-.223v.26c-.89-1.188-1.819-2.97-3.934-2.413.074 1.077 1.707 2.227 2.895 2.71.817.371 1.336.297 1.67 1.188.26.668.594 1.225.854 1.893-.483-.186-2.821-3.49-4.38-1.82.557 1.411 3.378 2.488 4.529 2.45l.52.15c.222-.26.148.185.296-.52.557-1.596 1.41-2.376 1.56-4.418-3.008.334-1.708 3.118-2.117 3.712a30.862 30.862 0 00-.705-1.633c-.742-1.856 1.67-2.042 1.782-5.011-2.227.037-2.264 1.373-2.264 3.452-.038-.037-.038-.111-.075-.074 0 0-.037-.075-.037-.112l-.074-.074c-.26-.445.037-.185-.297-.482z" fill="#E3C464"/>
  <path fill-rule="evenodd" clip-rule="evenodd" d="M52.562 33.447c.408 1.707.63 2.598-.223 4.12-.52.965-1.596 1.93-2.413 2.562-1.336 1.039-5.605 3.823-5.828 4.046 1.3-.037 6.904-3.86 7.981-4.64 1.15-.854 2.561-1.93 3.378-2.933 2.524-2.932.78-3.823 1.076-4.528-.37.222-1.447.52-1.967.668-1.04.26-1.745.297-2.004.705z" fill="#F27606"/>
  <path fill-rule="evenodd" clip-rule="evenodd" d="M26.022 12.801c.408-.111.186-.297.297.149.371-.223.483-.372.705-.669 1.188-.111 3.007.706 3.787-.297-.372-.408-.743-.556-1.448-.594-1.077-.074-.965.186-1.782.372.445-.594 1.596-1.893 2.264-1.893.891 0 1.337.334 1.634.408.556.148 1.447.037 1.819-.26-.186-.334-.891-.705-1.263-.817-.742-.148-1.224.037-1.893.223 1.82-1.93 5.42-2.264 6.274-3.972-1.337 0-2.487.446-3.49 1.04-1.781 1.039-1.559 1.633-2.71 2.115.446-.928 1.151-1.856 1.04-3.192-.89.371-1.596 1.522-1.819 2.673-.148.78-.037 1.225-.52 1.707-.408.409-.78.817-1.299 1.04.297-1.151.705-1.745.557-3.193-.817.223-1.262 1.485-1.41 2.228-.186.779-.112.853-.112 1.633.037.928-.297.63-.631 1.299z" fill="#D69846"/>
  <path fill-rule="evenodd" clip-rule="evenodd" d="M22.273 18.447c.222.148.222-.297.148.408.817-.705-.111-.928 2.116-1.04.817-.037 1.93-.37 2.264-1.002-.408-.297-1.04-.668-1.744-.594-.706.112-1.003.52-1.485.854.111-.408 1.002-2.004 1.707-2.116 1.374-.148 2.376.371 3.416-.594-.966-1.707-2.933-.037-3.453.186l1.077-1.596c-.112-.446.111-.26-.297-.149l-.965 1.077c.074-.891.928-2.784.111-3.675-.742.928-1.04 2.041-.965 3.415.074 1.076.334.928-.223 1.782l-.965 1.373c.111-1.485.52-2.413-.334-3.638-.111.075-.037.037-.186.186l-.37.817c-.632 2.004.63 3.006.148 4.306z" fill="#E3C464"/>
  <path fill-rule="evenodd" clip-rule="evenodd" d="M48.406 28.357c.297.482 1.3 1.447 1.708 1.893.408.482 1.522 1.299 1.707 2.041 1.003-.334 3.081-.556 3.675-1.262-.148-.26 0-.074-.26-.334a2.7 2.7 0 01-.297-.334 7.638 7.638 0 01-.556-.52c-.409-.148-1.374-1.039-1.634-1.41l-.853-.817-3.49.743z" fill="#F27606"/>
  <path fill-rule="evenodd" clip-rule="evenodd" d="M22.978 45.025c-.148.705-.074.26-.297.52l-.52-.149c.446.446 1.337 1.782 1.56 2.413-.854-.371-3.23-3.044-4.566-1.15.482.965 2.116 1.559 3.526 1.744 2.302.334 1.41.074 2.784 1.67.223.26.075.223.334.297.446.186.223-.037.483.372.074-.149.074-.112.148-.149-.408-.185-.222-.185-.408-.594-.223-1.188-1.633-.965-.965-2.895.483-1.522.817-1.782.78-3.75-2.636.335-1.597 3.453-1.523 4.047-.37-.26-1.299-1.856-1.336-2.376z" fill="#E8B649"/>
  <path fill-rule="evenodd" clip-rule="evenodd" d="M70.863 52.523c.26.297.037.186.483.371.371-.297 1.15-1.002 1.41-1.447 2.08-.038 4.344.11 5.569-1.226-.409-1.633-2.822-.63-3.861-.037-.334.186-.854.706-1.076.52-.335.037-.372-.148-.223.037.037-.074-.037.223.037-.148l.111-.483c-.482-.185-.297.334.112-1.114.594-1.967-.743-3.155-1.522-3.006-.372 3.192 1.225 4.343.111 5.42-.408.408-.742.705-1.15 1.113z" fill="#E3C464"/>
  <path fill-rule="evenodd" clip-rule="evenodd" d="M51.893 27.617l.854.817c.705-1.04 2.375-1.225 3.489-.52.668.408.742 1.04.074 1.485-.63.445-1.15.297-1.93.445.185.186.334.334.557.52.111.148.185.223.297.334.26.26.111.074.26.334.779-.074 3.637-2.005 1.559-3.898-1.337-1.188-1.3-.445-5.16.483z" fill="#000"/>
  <path fill-rule="evenodd" clip-rule="evenodd" d="M52.748 28.428c.26.371 1.225 1.262 1.633 1.41.78-.148 1.3 0 1.93-.445.669-.445.594-1.076-.074-1.485-1.114-.705-2.784-.52-3.49.52z" fill="#DB0A07"/>
  <path fill-rule="evenodd" clip-rule="evenodd" d="M61.507 62.88c.297.148.928.185 1.41.11.557-1.41-.928-2.56-2.116-2.45l.186.224c-.037.185-.111.222-.111.297-.149.297-.038-.112-.149.26.297.185.446.37.557.742l.223.816z" fill="#E3C464"/>
  <path fill-rule="evenodd" clip-rule="evenodd" d="M45.993 86.376c.631-2.524 4.157-4.455 7.053-2.264-.557 2.524-4.64 3.118-7.053 2.264zM13.847 71.082l.78 1.597.11 2.97-6.83-.112H3.64c-1.485.111-1.225-.149-1.337 1.076 1.745 1.15 6.719-.185 9.02.78-.074 2.413-.556 1.113-3.6 1.188-5.791.11-4.492 5.16-1.893 6.05 2.227.706 4.083-1.225 6.125-.557 1.262 1.188-1.374 2.562-2.673 2.525-1.745.037-6.422-2.71-5.308.37.148.372.705.669 1.15.855 1.56.556 2.042.037 3.304.965a27.762 27.762 0 001.596 2.45c1.151-.075 1.67.185 2.228-.594l-.966-1.485-1.819-.594c.706-.408 2.042-1.04 2.785-1.522 2.895-4.603-1.226-5.16-5.866-4.12l-1.781.26c.148-1.856.853-2.302 2.858-2.562 1.633-.222 3.007-.074 4.269.483 1.522-.112.742-.743.854-2.228.11-2.19-.409-1.855 2.004-1.855 1.077 1.781.334 7.758.334 10.245l1.56.78c.927.26.519-1.931.519-2.822 0-1.225.037-2.264.705-3.266.706-1.114 3.192-3.378 5.16-1.708 2.004 2.376-.334 5.568-1.633 6.867l.52 1.003 1.707.148c.928-2.227 3.34-3.675 1.076-7.573-.594-1.076-1.633-2.041-3.563-2.115-2.116-.112-2.45.593-3.712 1.707l-.149-3.266 24.166.074.482 1.113c-.111 1.745-1.113 3.675-2.264 4.789l-2.079 3.415c-1.448-1.819.186-3.935-.63-6.273-.743-2.116-2.933-1.374-4.9-1.263.704 3.193.89.966 3.563.632-.334 1.41-.409.928-.743 1.893-.334.89-.222 1.299-.482 2.375l.594.966c1.15 1.707 1.819 2.747 3.897 3.378 1.93-2.265 5.012-8.241 5.086-11.1l3.044.038c0 2.004-.075 2.45-.483 4.194 2.042-.594 7.239-2.71 6.719.854-5.308-1.336-9.206 1.04-6.904 5.383 1.447.37 2.895.928 4.788.52 4.343-.929.78-.632 4.009.333.074-1.819.26-7.053-.371-8.315-.52-1.076-1.225-1.447-3.007-1.447-2.895 0-3.192 1.262-3.192-1.188 1.93-.668 6.087-.483 8.463-.186l-.148-1.559-27.73-.111-10.43-.334c-2.005.78-.89.37-1.56-.334l-.185-1.745c-.78-2.599-1.336-5.197-4.937-5.345.631 1.596.112.37 1.04 1.707.63.928.482.557.928 1.596z" fill="#DA9A16"/>
  <path fill-rule="evenodd" clip-rule="evenodd" d="M62.103 86.597c-.705-2.264 1.819-4.157 6.904-2.635-1.113 2.635-4.825 3.303-6.904 2.635zm-4.937-9.206l.074 10.431 1.708.445.148-11.358 3.452.185-.408 4.083c2.45-.408 5.049-2.45 6.83.334-1.262.743-10.134-1.15-7.164 5.865 1.262.483 2.784 1.077 4.714.632 3.935-.854 1.04-.669 4.12.297.186-1.82.335-6.2-.185-7.87-.334-1.114-1.002-1.707-2.524-1.856-1.04-.074-1.114.037-2.005.074-.556.037-.556.075-1.039.037-.89-.074-.186.112-.854-.185V77.39c1.485-.63 6.905-.334 8.575-.26.148 3.304-2.116 12.51 7.721 9.8 1.04-.334.557-.52 1.04.557 1.447 7.461-6.2 9.763-8.65 5.976l-.482-.334c.482-1.67 1.336-1.819 3.303-2.041 1.3-.743.483.185.632-1.374-1.077-.668.408-.928-2.042-.668-.817.074-1.819.594-2.45.78-1.448 3.08-.705 3.563 1.522 5.605 1.559.52 9.169 2.487 10.17-3.527l.075-10.43c-.037-2.488.037-1.3-.817-2.562l-1.596-.074c.149 3.638.112 8.946-5.085 7.795-1.968-1.856-1.188-7.016-1.15-9.651l7.869.111c2.041-.26 1.336.223 1.67-.89l-.408-.632-4.38-.037-20.49.112c.296-3.527-.743-6.385-2.71-8.316l-2.042.112-.297.074c.89.594 2.116 2.45 2.635 4.01.78 2.152.446 3.563.52 5.864z" fill="#DA9A16"/>
  <path fill-rule="evenodd" clip-rule="evenodd" d="M28.51 88.159c1.374.297.26.185.78-.297v-9.317l-1.782-.186c-.223 1.782-.111 3.6-.074 5.382 0 2.487-.483 3.007 1.076 4.418zM25.798 70.528l.446.445c.037.075.148.186.185.223 1.782 1.708 1.894.26 2.562 3.007l-1.04-.074 2.599.185-.372-.445-.965-1.41c-.408-1.337.372-1.04-1.15-2.228-.78-.594-.26-.037-.891-.742l-1.337.148-.037.89z" fill="#DA9A34"/>
  <path fill-rule="evenodd" clip-rule="evenodd" d="M9.095 88.42c2.227 0 4.046.742 4.046 1.633 0 .89-1.82 1.596-4.046 1.596-2.228 0-4.046-.705-4.046-1.596 0-.891 1.818-1.634 4.046-1.634z" fill="#201E1E"/>
  <path fill-rule="evenodd" clip-rule="evenodd" d="M85.637 86.264c.63-2.487 4.157-4.417 7.053-2.227-.557 2.487-4.64 3.08-7.053 2.227zm-1.93-9.28v-1.41l12.658.036.185 1.522c-2.413-.26-6.57-.445-8.5.186 0 2.45.297 1.225 3.192 1.225 1.782-.037 2.487.334 3.007 1.41.63 1.263.445 6.46.408 8.278-3.266-.965.297-1.262-4.009-.334-1.93.408-3.378-.148-4.788-.52-2.34-4.343 1.559-6.644 6.867-5.345.52-3.526-4.677-1.447-6.719-.854.408-1.744.52-2.19.483-4.194h-2.784z" fill="#DA9A34"/>
</svg>
