<svg width="3" height="6" viewBox="0 0 3 6" fill="none" xmlns="http://www.w3.org/2000/svg">
<path d="M1.33826 4.00082L1.34009 4.00113L1.33749 3.99723L0.0084497 2.00366L2.00082 1.6716L2.00127 1.67428L2.00429 1.66924L3 0.00971829L3.99571 1.66924L3.99435 1.67006L3.99842 1.67141L5.99074 2.33552L4.66313 3.66313L4.66078 3.66078L4.66172 3.66738L4.9937 5.99126L3.00224 4.99553L3.00373 4.99255L2.99776 4.99553L1.00655 5.99114L1.33826 4.00082Z" fill="#F2994A" stroke="black" stroke-width="0.01"/>
<path d="M1.33333 4L0 2L2 1.66667L3 0L4 1.66667L6 2.33333L4.66667 3.66667L5 6L3 5L1 6L1.33333 4Z" fill="#F2994A"/>
</svg>
