<svg width="95" height="30" fill="none" xmlns="http://www.w3.org/2000/svg">
  <path fill-rule="evenodd" clip-rule="evenodd" d="M43.993 19.376c.631-2.524 4.157-4.455 7.053-2.265-.557 2.525-4.64 3.119-7.053 2.265zM11.847 4.082l.78 1.596.11 2.97-6.83-.111H1.64C.154 8.648.414 8.388.302 9.613c1.745 1.15 6.719-.185 9.02.78-.074 2.413-.556 1.113-3.6 1.188-5.791.11-4.492 5.16-1.893 6.05 2.227.706 4.083-1.225 6.125-.557 1.262 1.188-1.374 2.562-2.673 2.525-1.745.037-6.422-2.71-5.308.37.148.372.705.669 1.15.855 1.56.556 2.042.037 3.304.965a27.766 27.766 0 001.596 2.45c1.151-.075 1.67.185 2.228-.594l-.966-1.485-1.819-.594c.706-.408 2.042-1.04 2.785-1.522 2.895-4.603-1.225-5.16-5.866-4.12l-1.781.26c.148-1.857.853-2.302 2.858-2.562 1.633-.223 3.007-.074 4.269.483 1.522-.112.742-.743.854-2.228.11-2.19-.409-1.856 2.004-1.856 1.077 1.782.334 7.759.334 10.246l1.56.78c.927.26.519-1.931.519-2.822 0-1.225.037-2.264.705-3.267.706-1.113 3.192-3.377 5.16-1.707 2.004 2.376-.334 5.568-1.633 6.867l.52 1.003 1.707.148c.928-2.227 3.34-3.675 1.076-7.573-.594-1.076-1.633-2.041-3.563-2.115-2.116-.112-2.45.594-3.712 1.707l-.149-3.267 24.166.075.482 1.113c-.111 1.745-1.113 3.675-2.264 4.789l-2.079 3.415c-1.448-1.819.186-3.935-.63-6.273-.743-2.116-2.933-1.374-4.9-1.263.704 3.193.89.966 3.563.632-.334 1.41-.409.928-.743 1.893-.334.89-.222 1.299-.482 2.375l.594.966c1.15 1.707 1.819 2.747 3.897 3.378 1.93-2.265 5.012-8.241 5.086-11.1l3.044.038c0 2.004-.075 2.45-.483 4.194 2.042-.594 7.239-2.71 6.719.854-5.308-1.336-9.206 1.04-6.904 5.383 1.447.37 2.895.928 4.788.52 4.343-.929.78-.632 4.009.333.074-1.819.26-7.053-.371-8.315-.52-1.076-1.225-1.447-3.007-1.447-2.895 0-3.192 1.262-3.192-1.188 1.93-.668 6.087-.483 8.463-.186l-.148-1.559-27.73-.111-10.43-.334c-2.005.78-.89.37-1.56-.334l-.185-1.745C14.036 3.525 13.48.927 9.88.779c.631 1.596.112.37 1.04 1.707.63.928.482.557.928 1.596z" fill="#DA9A16"/>
  <path fill-rule="evenodd" clip-rule="evenodd" d="M60.103 19.597c-.705-2.264 1.819-4.158 6.904-2.636-1.113 2.636-4.825 3.304-6.904 2.636zm-4.937-9.206l.074 10.431 1.708.445.148-11.358 3.452.185-.408 4.083c2.45-.408 5.049-2.45 6.83.335-1.262.742-10.134-1.151-7.164 5.864 1.262.483 2.784 1.077 4.714.632 3.935-.854 1.04-.669 4.12.297.186-1.82.335-6.2-.185-7.87-.334-1.114-1.002-1.708-2.524-1.856-1.04-.074-1.114.037-2.005.074-.556.037-.556.074-1.039.037-.89-.074-.186.112-.854-.185V10.39c1.485-.63 6.905-.334 8.575-.26.148 3.304-2.116 12.51 7.721 9.8 1.04-.334.557-.52 1.04.557 1.447 7.461-6.2 9.763-8.65 5.976l-.482-.334c.482-1.67 1.336-1.819 3.303-2.041 1.3-.743.483.185.632-1.374-1.077-.668.408-.928-2.042-.668-.817.074-1.819.594-2.45.78-1.448 3.08-.705 3.563 1.522 5.605 1.559.52 9.169 2.487 10.17-3.527l.075-10.43c-.037-2.488.037-1.3-.817-2.562l-1.596-.074c.149 3.638.112 8.946-5.085 7.795-1.968-1.856-1.188-7.016-1.15-9.651l7.869.111c2.041-.26 1.336.223 1.67-.89l-.408-.632-4.38-.037-20.49.111c.296-3.526-.743-6.384-2.71-8.314l-2.042.11-.297.075c.89.594 2.116 2.45 2.635 4.01.78 2.152.446 3.563.52 5.864z" fill="#DA9A16"/>
  <path fill-rule="evenodd" clip-rule="evenodd" d="M26.51 21.159c1.374.297.26.185.78-.297v-9.317l-1.782-.186c-.223 1.782-.111 3.6-.074 5.382 0 2.487-.483 3.007 1.076 4.418zM23.798 3.528l.446.445c.037.075.148.186.185.223 1.782 1.708 1.894.26 2.562 3.007l-1.04-.074 2.599.185-.372-.445-.965-1.41c-.408-1.337.372-1.04-1.15-2.228-.78-.594-.26-.037-.891-.742l-1.337.148-.037.89zM83.637 19.264c.63-2.487 4.157-4.417 7.053-2.227-.557 2.487-4.64 3.08-7.053 2.227zm-1.93-9.28v-1.41l12.658.036.185 1.522c-2.413-.26-6.57-.445-8.5.186 0 2.45.297 1.225 3.192 1.225 1.782-.037 2.487.334 3.007 1.41.63 1.263.445 6.46.408 8.278-3.266-.965.297-1.262-4.009-.334-1.93.409-3.378-.148-4.788-.52-2.34-4.343 1.559-6.644 6.867-5.345.52-3.526-4.677-1.447-6.719-.854.408-1.744.52-2.19.483-4.194h-2.784z" fill="#DA9A34"/>
</svg>
